<?xml version="1.0" encoding="UTF-8" standalone="no"?><svg xmlns="http://www.w3.org/2000/svg" width="100%" height="100%" viewBox="0 0 45 45" version="1.1"><path fill="#006233" d="M45,33.75c0,2.761 -2.239,5 -5,5l-35,0c-2.761,0 -5,-2.239 -5,-5l0,-22.5c0,-2.761 2.239,-5 5,-5l35,0c2.761,0 5,2.239 5,5l0,22.5Z"/><path fill="#eeeeee" d="M10.421,17.865l-2.352,-1.709l-2.353,1.709l0.899,-2.765l-2.353,-1.71l2.908,0l0.899,-2.765l0.898,2.765l2.908,0l-2.353,1.71l0.899,2.765Zm5.829,-11.615l-11.25,0c-2.761,0 -5,2.239 -5,5l0,11.25l16.25,0l0,-16.25Z"/><path fill="#006233" d="M8.967,13.391l-0.898,-2.766l-0.898,2.765l-2.909,0l2.353,1.709l-0.899,2.766l2.353,-1.71l2.352,1.71l-0.899,-2.766l2.353,-1.709l-2.908,0Z"/></svg>